<svg xmlns="http://www.w3.org/2000/svg" version="1.1" xmlns:xlink="http://www.w3.org/1999/xlink" xmlns:svgjs="http://svgjs.com/svgjs" width="1000" height="1000"><rect width="1000" height="1000" rx="200" ry="200" fill="#ade7ff"></rect><g transform="matrix(2.094240837696335,0,0,2.094240837696335,160.80771843544477,100.04805218798953)"><svg xmlns="http://www.w3.org/2000/svg" version="1.1" xmlns:xlink="http://www.w3.org/1999/xlink" xmlns:svgjs="http://svgjs.com/svgjs" width="323.9" height="382"><svg id="atomicpink-atom" xmlns="http://www.w3.org/2000/svg" viewBox="0 0 323.9 382"><path d="m291,66.8c-14.1-2-27.9,0-41.6,2.7-9.4,1.9-18.5,4.9-27.6,7.6-1.8-2.2-2-4.6-2.7-6.8-5.5-17-12-33.5-22.6-48.1-6.4-8.9-13.8-16.7-24.5-20.5-4.9-1.7-9.8-2.5-15.6-.8,5.7,5,9.6,10.5,11.7,17.2,2.2,6.7,1.3,13.4.2,19.9,21.1,8.3,29.6,26.2,37.6,44.6-.8.7-1.1,1.2-1.6,1.4-13.7,5.7-27.1,12-40,19.2-2.2,1.2-3.7.4-5.5-.5-6.8-3.5-13.6-7.1-20.5-10.4-6.6-3.2-13.2-6-20.1-9.1,2.3-7.8,6.6-14.3,10.2-21.6-6.7-1.4-11.8-4.6-16.9-8.4-4,7.9-5.6,16.3-9,24.2-3.2-1-6-1.9-8.8-2.7-20.2-5.9-40.6-10.6-61.9-7.6-16.6,2.4-27.8,11.3-30.9,25.6-1.6,7.4-.9,14.9,1,22.3,6,22.6,18.9,41.3,33.2,59.2,4.6,5.7,9.4,11.1,14.4,16.9-8.4,9.5-16.6,18.8-24.1,29.7,8.2,1.1,15.2,3.7,21.2,8.9,4.7-9.3,9.1-18,15.4-25.5,9.1,8,17.7,15.6,26.3,23.2,1.6,1.4,1.8,3.1,1.9,4.9.8,10.3,2,20.5,3.7,30.7,1.2,7.1,2.4,14.3,3.6,21.6-8.5,2.1-16.7,2.1-24.8,1.5-8.4-.6-16.2-3.2-23-8.2-15.8,14.6-32.1,15.3-49.4,2.8-.4,3.1-.3,5.7.3,8.3,3.1,14.3,14.1,23.5,30.6,25.9,17.5,2.6,34.5-.2,51.4-4.5,6.7-1.7,13.3-3.8,20.2-5.8,3.3,11,6.8,21.4,11.3,31.4,6.4,14,13.8,27.4,26,37.4,12.6,10.4,26.7,11.3,39.7,2.8,4.9-3.2,9.1-7.3,12.8-11.8,10.7-13.1,17.6-28.2,23.2-43.9,1.8-5.1,3.5-10.3,5.3-15.9,18.3,5.8,36.3,10.8,56.5,11.2-11.2-8.4-16.3-18.6-16.1-31.5-12,2.6-23.6,2.9-35.6.2,3.9-18.3,6.3-36.2,7.9-54.2,0-1,.4-1.9,1.3-2.6,9.1-7.5,17.8-15.4,26.7-23.9,10.9,15.2,19.6,30.7,21.8,49.6,12.5-4.4,24.1-2.9,35,4.5-9.5-25.8-26.4-46.6-44.3-66.7,7.1-8,13.8-15.6,19.9-23.7,12.3-16.5,23.4-33.7,28.2-54.1,6-25.7-5.7-42.5-31.6-46.2l.2-.4Zm-80.1,30.3c4.8,14.6,7.5,29.2,9.6,45.4-15-11.2-29.4-21-45.4-30.7,12.1-6.2,23.5-11,35.8-14.7h0Zm-97.7,0c12.3,3.7,23.6,8.5,35.8,14.6-15.7,9.6-30.2,19.3-45.2,30.7,1.7-16.3,4.8-30.7,9.4-45.3h0Zm-24.8,112.3c-6.6-4.8-12.1-10.4-17.9-16.6,5.5-6.9,11.2-12.8,18-19.6,0,12.8-.4,24.4,0,36.2Zm5.6-90.1c-1.7,10-2.8,20.1-3.7,30.2-.2,1.8,0,3.6-1.7,5-9.8,8.2-19.3,16.8-29,26-13.7-17.9-26.3-35.7-28.3-58.7-1.1-13,6.1-24.5,18.4-29,16.1-5.9,32.3-3.6,48.9.2-1.6,9.1-3.1,17.7-4.6,26.4h0Zm11.6,121.2c13.9,10.5,27.1,19.2,41.4,28.1-10.6,5.1-20.7,8.6-31.6,11.7-4.5-12.6-7.7-25.2-9.8-39.8h0Zm70.6,88.6c-10.5,6.2-21.1,5.4-30.9-1.6-10.8-7.6-17.4-18.5-23.2-30.4,7.6-3.6,14.7-7,21.9-10.3,6.2-2.8,11.9-8.8,18.2-8.5,6.1.3,11.8,5.5,17.8,8.4,7.1,3.5,14.3,6.8,22,10.4-6.4,12.8-13.4,24.6-25.8,32h0Zm32.6-48.8c-11-2.9-21-6.7-31.9-11.7,14.5-8.9,27.8-17.7,41.6-28.2-2.1,14.4-5.3,26.9-9.7,39.9h0Zm12.7-61.4c-.2,2.7-1.1,4.6-3.3,6.3-16.6,13.2-34.3,24.7-52.9,34.7-2.3,1.2-4.2,1.3-6.5,0-18.6-10.1-36.4-21.5-52.9-34.8-2-1.6-2.9-3.2-3.2-5.8-1.2-11.3-1.9-22.6-1.7-33.9,0-6.8,0-13.6.6-20.5.3-3.4,1.6-5.5,4-7.5,16.6-14,34.3-26.4,53.1-37.2,2.5-1.4,4.4-1.3,6.8,0,19.1,11,37,23.6,53.8,37.8,2.2,1.9,3,4,3.2,6.8,1.4,18,.6,35.9-1,53.9v.2Zm13.8-8.4v-37.3c7,6.3,12.5,12.6,18.3,19.4-5.5,6-11.3,11.6-18.3,17.8h0Zm56.7-82.5c-4,20-15,36.3-27.7,52.6-9.6-9.4-19-17.8-28.8-25.9-.9-.8-1.5-1.7-1.6-3-1.7-19.5-4.4-38.9-8.8-58.7,17.2-3.8,34-6.5,50.7.5,13.3,5.6,19.3,18.7,16.2,34.5h0Z" fill="#c94990"></path><path d="m298.1,264.4c-12.3,0-22.6,10.2-22.7,22.5,0,12.3,10.2,22.6,22.5,22.7,12.4,0,22.6-9.9,22.9-22.2.3-12.4-10.2-23-22.7-22.9h0Z" fill="#c94990"></path><path d="m44.8,254.9c0-11.3-9.7-20.7-20.9-20.6-11.3,0-20.6,9.5-20.5,20.9,0,11.4,9.3,20.5,20.8,20.5s20.7-9.4,20.6-20.7h0Z" fill="#c94990"></path><path d="m135.4,47.3c10.6,0,19.3-9.1,19.2-19.7-.2-10.6-8.6-18.8-19.2-18.9-11,0-19.3,8.2-19.2,19.2,0,10.8,8.7,19.5,19.3,19.4h0Z" fill="#c94990"></path><path d="m162.2,161c-16.2,0-29.7,13.2-29.8,29.4,0,16.6,13.1,30.1,29.5,30.2,16.3,0,30-13.6,30-29.9s-13.5-29.6-29.6-29.7h0Z" fill="#c94990"></path></svg></svg></g></svg>